<!-- icon666.com - MILLIONS OF FREE VECTOR ICONS --><svg id="Capa_1" enable-background="new 0 0 511.999 511.999" viewBox="0 0 511.999 511.999" xmlns="http://www.w3.org/2000/svg"><g id="XMLID_1679_"><g id="XMLID_387_"><path id="XMLID_1342_" d="m437.022 283.681c12.089-12.246 18.623-28.472 18.399-45.689-.451-34.734-29.446-62.992-64.635-62.992h-59.992c17.943-18.818 28.493-44.042 28.702-70.675.444-56.73-45.324-103.526-102.024-104.316-27.906-.37-54.267 10.192-74.144 29.793-19.88 19.606-30.828 45.779-30.828 73.697 0 26.96 10.557 52.491 28.691 71.5h-59.979c-35.188 0-64.184 28.258-64.635 62.993-.224 17.217 6.311 33.443 18.399 45.689 12.09 12.248 28.225 18.993 45.433 18.993h33.117l-37.866 127.27c-10.038 33.738 9.243 69.353 42.982 79.392 5.944 1.768 12.076 2.665 18.227 2.665 28.017 0 53.169-18.771 61.165-45.647l15.193-51.068c.408-1.372 1.341-2.067 2.771-2.067s2.363.695 2.771 2.067l15.194 51.068c7.996 26.876 33.147 45.647 61.164 45.647 6.15 0 12.282-.896 18.228-2.665 33.738-10.039 53.02-45.653 42.981-79.391l-10.944-36.787c-1.575-5.294-7.145-8.305-12.437-6.733-5.294 1.575-8.308 7.143-6.733 12.437l4.239 14.249c-7.144 12.062-22.425 17.231-35.566 11.51-.019-.008-.037-.016-.056-.024-17.251-7.487-36.65-3.998-50.241 7.369l-6.66-22.383c-2.912-9.788-11.729-16.364-21.941-16.364s-19.029 6.576-21.941 16.364l-6.66 22.384c-13.591-11.366-32.989-14.856-50.239-7.37-.019.008-.038.016-.058.024-13.142 5.721-28.417.555-35.566-11.51l34.984-117.583c.9-3.026.318-6.299-1.568-8.83-1.888-2.531-4.859-4.021-8.017-4.021h-20.902c8.532-14.467 9.43-32.97.743-48.606-.017-.03-.033-.06-.05-.089-7.645-13.698-2.823-31.149 10.718-38.979h40.794v57.541c0 3.573 1.906 6.874 5 8.66 1.547.893 3.273 1.34 5 1.34s3.453-.447 5-1.34l11.063-6.387c2.111 15.615 15.519 27.694 31.702 27.694s29.591-12.079 31.702-27.694l11.063 6.387c1.547.894 3.273 1.34 5 1.34s3.453-.447 5-1.34c3.094-1.786 5-5.087 5-8.66v-57.541h40.793c13.547 7.848 18.36 25.288 10.719 38.979-.017.029-.033.059-.049.088-8.688 15.636-7.79 34.14.742 48.607h-20.904c-3.157 0-6.129 1.491-8.016 4.021-1.888 2.531-2.47 5.804-1.569 8.83l5.072 17.049c1.575 5.294 7.146 8.306 12.437 6.733 5.294-1.575 8.309-7.143 6.733-12.437l-1.249-4.198h33.116c17.207-.002 33.342-6.747 45.432-18.994zm-110.113 159.273c.018.008.036.016.054.023 6.203 2.692 12.679 3.966 19.068 3.966 11.365-.001 22.437-4.042 31.136-11.301l.001.005c6.894 23.167-6.347 47.625-29.514 54.518-4.093 1.217-8.307 1.834-12.525 1.834-19.234 0-36.503-12.892-41.994-31.351l-1.825-6.134c7.131-12.099 22.433-17.292 35.599-11.56zm-160.939 3.989c6.384 0 12.865-1.274 19.064-3.964.019-.008.037-.017.056-.024 13.163-5.732 28.467-.539 35.599 11.562l-1.825 6.133c-5.491 18.459-22.761 31.351-41.995 31.351-4.218 0-8.432-.617-12.523-1.834-23.168-6.893-36.409-31.35-29.516-54.518l.001-.004c8.701 7.259 19.772 11.299 31.139 11.298zm-36.758-203.301c.017.03.033.06.05.089 7.618 13.646 2.857 31.016-10.59 38.9-11.161-.431-21.569-5.003-29.462-13-8.301-8.409-12.788-19.553-12.635-31.379.311-23.849 20.334-43.252 44.637-43.252h8.764c-8.551 14.472-9.458 32.993-.764 48.642zm89.023-42.434 29.455 17.006-29.455 17.005zm37.765 61.299c-6.617 0-12-5.383-12-12s5.383-12 12-12 12 5.383 12 12-5.383 12-12 12zm37.764-27.288-29.455-17.005 29.455-17.006zm3.744-59.267-41.508 23.966-41.501-23.961c-25.92-14.882-41.999-42.58-41.999-72.458 0-22.524 8.833-43.639 24.872-59.456 16.036-15.814 37.275-24.382 59.821-24.036 45.741.637 82.662 38.392 82.304 84.161-.232 29.596-16.306 57.034-41.989 71.784zm93.279 19.047c24.303 0 44.326 19.403 44.637 43.252.153 11.826-4.334 22.971-12.635 31.379-7.893 7.997-18.301 12.569-29.462 13-13.447-7.884-18.208-25.254-10.59-38.9.017-.029.032-.058.049-.087 8.696-15.649 7.791-34.168-.767-48.644z"></path><path id="XMLID_1379_" d="m256 305.273c-17.645 0-32 14.355-32 32s14.355 32 32 32 32-14.355 32-32-14.356-32-32-32zm0 44c-6.617 0-12-5.383-12-12s5.383-12 12-12 12 5.383 12 12-5.383 12-12 12z"></path><path id="XMLID_1380_" d="m228.044 90.067-.091-.09c-3.915-3.894-10.246-3.878-14.142.039-3.895 3.916-3.878 10.247.038 14.142l.091.09c1.951 1.94 4.501 2.91 7.052 2.91 2.567 0 5.136-.983 7.09-2.948 3.895-3.917 3.879-10.248-.038-14.143z"></path><path id="XMLID_1381_" d="m298.058 89.976c-3.915-3.894-10.246-3.878-14.142.039-3.895 3.916-3.878 10.247.038 14.142l.091.09c1.951 1.94 4.501 2.91 7.052 2.91 2.567 0 5.136-.983 7.09-2.948 3.895-3.916 3.878-10.247-.038-14.142z"></path><path id="XMLID_1391_" d="m273.428 128.437c-9.539 9.541-25.064 9.541-34.604 0-3.906-3.905-10.236-3.905-14.143 0-3.905 3.905-3.905 10.237 0 14.143 8.669 8.669 20.057 13.003 31.444 13.003s22.775-4.334 31.444-13.003c3.905-3.905 3.905-10.237 0-14.143-3.904-3.906-10.234-3.906-14.141 0z"></path><path id="XMLID_1392_" d="m355.939 345.789c-1.859 1.86-2.93 4.43-2.93 7.07 0 2.63 1.07 5.21 2.93 7.07s4.44 2.93 7.07 2.93 5.21-1.07 7.07-2.93c1.859-1.86 2.93-4.44 2.93-7.07 0-2.64-1.07-5.21-2.93-7.07-1.86-1.87-4.44-2.93-7.07-2.93s-5.21 1.06-7.07 2.93z"></path></g></g></svg>