<!-- icon666.com - MILLIONS OF FREE VECTOR ICONS --><svg xmlns="http://www.w3.org/2000/svg" xmlns:xlink="http://www.w3.org/1999/xlink" version="1.1" id="Capa_1" x="0px" y="0px" viewBox="0 0 511.903 511.903" style="enable-background:new 0 0 511.903 511.903;" xml:space="preserve"><path d="M510.464,153.61c-2.302-7.139-7.31-12.607-13.738-15.004c-12.814-4.772-27.836,3.698-33.495,18.882 c-3.807,10.214-2.82,22.953,5.088,31.026l-59.137,67.654l-12.96-134.59c9.405-4.106,17.07-13.741,19.418-25.99 c2.751-15.559-3.941-34.984-21.304-38.312c-15.235-2.915-30.471,9.518-33.959,27.723c-2.13,11.107,0.448,23.723,8.836,31.754 l-52.424,109.067L273.184,64.152c8.06-6.2,13.415-17.021,13.415-29.319C286.599,15.626,273.548,0,257.506,0 c-16.042,0-29.094,15.626-29.094,34.833c0,12.298,5.355,23.119,13.415,29.319l-43.869,162.651l-58.415-111.529 c7.261-8.075,9.406-19.822,7.403-30.274c-3.488-18.207-18.721-30.64-33.958-27.724c-17.156,3.288-24.28,22.788-21.304,38.312 c2.519,13.146,11.163,23.277,21.508,26.798l-7.957,133.101l-60.272-68.953c6.526-8.122,7.112-19.829,3.573-29.324 c-5.659-15.185-20.684-23.655-33.495-18.882C0.746,143.656-2.782,161.5,2.072,174.524c4.59,12.314,15.339,20.213,26.072,20.213 c0.194,0,0.388-0.02,0.582-0.025l14.265,84.536c1.624,9.619,16.421,7.166,14.791-2.496l-11.033-65.384l59.235,67.767 c4.327,4.953,12.741,2.075,13.134-4.488l8.909-149.033l65.539,125.13c3.059,5.84,12.144,4.932,13.885-1.526L255.891,69.61 c0.535,0.035,1.072,0.056,1.614,0.056c0.542,0,1.08-0.021,1.615-0.056l48.442,179.607c1.764,6.54,11.072,7.391,14.001,1.296 l59.986-124.799l14.367,149.205c0.618,6.417,8.956,8.972,13.112,4.217l59.236-67.767L433.39,418.031H382c-9.386,0-9.813,15,0,15 h49.822v63.872H83.19v-63.872h250.028c9.386,0,9.813-15,0-15H81.621l-16.584-98.279c-1.562-9.258-16.423-7.179-14.791,2.496 l17.602,104.307c0.076,0.452,0.192,0.887,0.342,1.303v76.545c0,4.143,3.358,7.5,7.5,7.5h363.632c4.143,0,7.5-3.357,7.5-7.5v-76.547 c0.15-0.416,0.266-0.851,0.342-1.302l39.101-231.717c9.814-1.171,19.216-8.735,23.428-20.035 C512.322,167.75,512.596,160.224,510.464,153.61z M16.127,169.286c-1.434-3.848-1.634-7.985-0.549-11.352 c0.52-1.612,1.822-4.478,4.7-5.55c4.977-1.855,11.478,2.756,14.201,10.063c1.434,3.848,1.634,7.985,0.549,11.352 c-0.52,1.612-1.822,4.478-4.7,5.55C25.358,181.207,18.851,176.595,16.127,169.286z M106.416,92.767 C106.415,92.766,106.415,92.766,106.416,92.767c-0.983-5.127-0.346-10.377,1.748-14.405c1.053-2.027,3.447-5.547,7.647-6.352 c0.562-0.107,1.125-0.16,1.691-0.16c6.471,0,12.966,6.858,14.713,15.975c0.982,5.126,0.345,10.376-1.749,14.404 c-1.053,2.027-3.447,5.547-7.646,6.352c-0.131,0.025-0.263,0.026-0.394,0.045c-0.292-0.053-0.588-0.094-0.891-0.112 c-0.611-0.04-1.206,0.002-1.782,0.104C113.76,107.733,108.039,101.234,106.416,92.767z M257.506,15 c7.64,0,14.094,9.082,14.094,19.833s-6.454,19.833-14.094,19.833s-14.094-9.082-14.094-19.833S249.866,15,257.506,15z M375.108,87.823c1.747-9.116,8.241-15.974,14.713-15.974c0.564,0,1.13,0.053,1.691,0.16c4.199,0.805,6.593,4.324,7.646,6.351 c2.093,4.028,2.73,9.279,1.747,14.405c0,0,0,0,0,0.001c-1.899,9.911-9.405,17.149-16.404,15.813 c-4.198-0.805-6.593-4.324-7.646-6.352C374.763,98.2,374.125,92.95,375.108,87.823z M495.638,169.564 c-2.725,7.308-9.23,11.921-14.202,10.063c-2.878-1.072-4.18-3.938-4.7-5.551c-1.085-3.365-0.885-7.503,0.549-11.351 c2.315-6.213,7.362-10.475,11.879-10.475c0.797,0,1.577,0.133,2.323,0.411c2.878,1.072,4.18,3.938,4.7,5.55 C497.272,161.579,497.072,165.717,495.638,169.564z"></path></svg>