<!-- icon666.com - MILLIONS OF FREE VECTOR ICONS --><svg viewBox="0 -46 512.00226 512" xmlns="http://www.w3.org/2000/svg"><path d="m443.320312 17c-27.769531-14.878906-61.015624-20.167969-93.621093-14.890625-33.578125 5.433594-65.832031 21.710937-93.675781 47.203125-51.886719-47.460938-118.660157-61.984375-175.820313-37.789062-3.8125 1.613281-5.597656 6.011718-3.984375 9.828124 1.613281 3.8125 6.015625 5.597657 9.832031 3.984376 53.4375-22.617188 116.558594-7.421876 164.734375 39.660156 2.914063 2.847656 7.566406 2.847656 10.484375 0 26.78125-26.171875 58.1875-42.800782 90.824219-48.082032 29.375-4.753906 59.257812-.027343 84.140625 13.308594 44.484375 23.835938 66.835937 70.230469 59.296875 122.097656h-25.390625c2.742187-15.40625 2.429687-30.011718-.960937-43.519531-10.3125-41.101562-48.292969-68.714843-94.511719-68.714843-23.785157 0-59.738281 7.425781-95.925781 42.792968l-22.714844 22.199219-22.71875-22.199219c-36.1875-35.371094-72.140625-42.792968-95.925782-42.792968-46.226562 0-84.214843 27.613281-94.53125 68.714843-3.390624 13.507813-3.699218 28.113281-.957031 43.519531h-25.378906c-3.316406-22.496093-1.164063-43.71875 6.414063-63.160156 7.59375-19.476562 20.628906-36.519531 37.707031-49.277344 3.316406-2.480468 3.996093-7.179687 1.515625-10.5-2.480469-3.316406-7.175782-3.996093-10.496094-1.515624-19.324219 14.441406-34.089844 33.75-42.703125 55.84375-9.296875 23.855468-11.367187 49.929687-6.148437 77.503906 4.347656 22.980468 13.769531 46.476562 28.007812 69.84375.003906.007812.007812.015625.027344.046875l.207031.335937c20.058594 32.796875 49.488281 65.199219 87.515625 96.359375-6.503906 21.425781-11.113281 38.921875-13.144531 46.878907-1.695313 6.644531 3.4375 13.285156 10.273437 13.351562l26.984375.261719s25.90625 28.5 25.921875 28.515625c5.699219 6.269531 16.371094 3.492187 18.339844-4.714844 1.960938-8.183594 5.203125-18.332031 9.269531-29.609375 15.148438 9.292969 31.195313 18.488281 47.839844 27.40625 7.394531 3.960937 16.570313 3.960937 23.960937 0 16.640626-8.917969 32.691407-18.113281 47.839844-27.40625 4.066406 11.277344 7.308594 21.425781 9.269532 29.609375 1.960937 8.1875 12.664062 10.957031 18.339843 4.714844l25.917969-28.511719s26.945312-.261719 26.988281-.261719c6.820313-.066406 11.960938-6.742187 10.273438-13.355468-2.03125-7.957032-6.640625-25.453126-13.148438-46.878907 11.410157-9.351562 22.152344-18.902343 31.976563-28.4375 2.96875-2.886719 3.039062-7.632812.15625-10.605469-2.882813-2.972656-7.632813-3.042968-10.605469-.15625-8.171875 7.933594-17.003906 15.882813-26.351563 23.71875-2.269531-7.089843-8.164062-24.367187-8.578124-25.535156 19.667968-17.164062 36.472656-34.667968 50.054687-52.128906h30.929687c-7.503906 11.011719-16.164062 22.035156-25.851562 32.90625-2.753906 3.089844-2.480469 7.832031.609375 10.585938 3.089844 2.757812 7.832031 2.484374 10.589844-.609376 13.519531-15.167968 25.15625-30.675781 34.558593-46.050781 0 0 .238282-.382812.265626-.429687 14.238281-23.363282 23.660156-46.863282 28.007812-69.839844 11.535156-60.984375-13.726562-116.246094-65.929688-144.21875zm-385.921874 95.453125c8.613281-34.3125 40.757812-57.367187 79.984374-57.367187 20.996094 0 52.867188 6.683593 85.441407 38.519531l27.957031 27.324219c2.917969 2.847656 7.570312 2.847656 10.484375 0l27.960937-27.324219c32.574219-31.835938 64.441407-38.519531 85.441407-38.519531 39.21875 0 71.351562 23.054687 79.964843 57.367187 3.058594 12.183594 3.136719 25.570313.25 39.871094h-69.171874c-2.085938-5.160157-4.644532-9.777344-7.679688-13.820313-11.699219-15.59375-31.183594-21.222656-49.863281-17.238281-13.59375 2.898437-26.019531 9.863281-36.75 18.550781-.019531.019532-.042969.035156-.0625.050782-5.101563 4.140624-10.023438 8.863281-14.667969 14.117187-3.667969-1.074219-7.539062-1.660156-11.546875-1.660156h-18.230469c-4.007812 0-7.882812.585937-11.546875 1.660156-4.636719-5.25-9.554687-9.964844-14.652343-14.101563-14.867188-12.078124-33.691407-21.304687-53.292969-19.808593-13.589844 1.03125-25.082031 7.339843-33.398438 18.425781-3.035156 4.046875-5.597656 8.660156-7.683593 13.824219h-69.183594c-2.890625-14.300781-2.808594-27.691407.246094-39.871094zm265.492187 136.054687c-11.269531-4.347656-21.261719-11.5625-29.816406-20.011718-.191407-.191406-2.507813-2.640625-2.550781-2.609375 3.679687-2.871094 6.871093-6.429688 9.367187-10.367188 8.402344-13.257812 8.429687-30.800781.007813-44.046875-2.574219-4.050781-5.976563-7.011718-9.246094-10.382812.519531-.722656 1.15625-1.335938 1.792968-1.980469 11.75-11.804687 26.59375-22.039063 43.535157-23.933594 12.710937-1.425781 25.511719 4.65625 32.203125 15.589844 5.664062 9.253906 7.933594 20.363281 8.855468 31.042969 1.945313 22.574218 1.890626 53.757812-20.878906 66.433594-10.195312 5.675781-22.597656 4.339843-33.117187.324218-.050781-.019531-.101563-.039062-.152344-.058594zm-51.734375-29.597656c-1.941406.488282-3.957031.746094-6.015625.746094 0 0-18.226563 0-18.230469 0-14.023437 0-26.167968-12.144531-26.167968-26.167969 0-14.152343 12.035156-26.164062 26.167968-26.164062h18.230469c14.171875 0 26.164063 12.007812 26.164063 26.164062.003906 12.015625-8.816407 22.585938-20.148438 25.421875zm-15.132812 25.550782c8.738281 18.339843 24.578124 52.15625 39.101562 86.148437-12.425781 7.828125-25.539062 15.59375-39.101562 23.152344-13.554688-7.558594-26.671876-15.324219-39.101563-23.152344 14.527344-33.992187 30.367187-67.804687 39.101563-86.148437zm-34.890626-18.152344c-12.730468 13.289062-30.546874 25.757812-49.683593 25.757812-17.195313 0-28.210938-12.660156-32.96875-28.121094-7.273438-23.621093-8.34375-63.917968 12.375-81.640624 12.152343-10.394532 29.414062-8.210938 42.917969-1.867188 9.5625 4.488281 18.039062 10.933594 25.511718 18.355469.109375.105469 1.605469 1.628906 2.238282 2.296875-.175782.140625-.347657.292968-.523438.4375-9.535156 7.757812-15.253906 19.65625-15.257812 31.960937 0 12.296875 5.722656 24.21875 15.261718 31.964844.175782.144531.34375.292969.523438.433594-.132813.140625-.261719.28125-.394532.421875zm-93.28125 11.832031c3.507813 7.527344 8.441407 14.257813 15 19.40625.039063.027344.074219.0625.109376.089844-.03125.074219-5.296876 13.542969-5.476563 14.011719-13.683594-12.246094-25.824219-24.628907-36.273437-36.992188h25.128906c.46875 1.167969.972656 2.332031 1.511718 3.484375zm-5.921874-70.820313c-.761719 3.765626-1.34375 7.730469-1.742188 11.890626-.898438 9.410156-1.171875 19.199218.003906 28.597656.398438 4.144531.976563 8.097656 1.738282 11.847656h-80.460938c-10.308594-17.574219-17.675781-35.128906-21.972656-52.332031h102.433594zm-70.949219 67.335938h30.921875c13.582031 17.460938 30.390625 34.964844 50.0625 52.128906-.410156 1.160156-6.308594 18.453125-8.578125 25.535156-30.21875-25.332031-54.496094-51.375-72.40625-77.664062zm123.40625 166.222656-22.8125-25.097656c-1.40625-1.546875-3.390625-2.4375-5.476563-2.457031l-24.773437-.238281c2.59375-9.894532 7.09375-26.394532 13.019531-45.601563.011719-.035156.027344-.066406.039062-.105469 6.519532-21.125 13.632813-42.089844 21.878907-62.609375.003906-.015625.011719-.03125.015625-.042969 1.773437.578126 3.59375 1.050782 5.460937 1.417969.011719 0 .027344.003907.039063.007813 16.84375 3.367187 34.304687-2.613282 48.472656-11.53125 9.035156-5.6875 17.164062-12.785156 24.296875-20.714844.226563-.25.769531-.847656.8125-.898438.199219.058594.402344.105469.601563.160157 2.65625.730469 5.414062 1.210937 8.164062 1.394531-6.128906 12.808594-16.96875 35.753906-28.390625 61.304688-20.921875 46.816406-34.796875 82.070312-41.347656 105.011718zm86.539062-4.210937c-3 1.605469-6.804687 1.601562-9.796875 0-17.296875-9.269531-33.945312-18.839844-49.570312-28.496094 1.335937-3.445313 7.613281-19.097656 9.464844-23.5625 13.164062 8.234375 27.039062 16.386719 41.378906 24.296875 2.195312 1.210938 5.007812 1.234375 7.246094 0 14.339843-7.910156 28.21875-16.0625 41.378906-24.296875 1.839844 4.433594 9.371094 23.320313 9.464844 23.5625-15.625 9.65625-32.273438 19.226563-49.566407 28.496094zm105.027344-23.34375c-2.085937.019531-4.070313.910156-5.476563 2.457031l-22.8125 25.09375c-6.550781-22.9375-20.429687-58.191406-41.351562-105.007812-11.417969-25.550782-22.257812-48.496094-28.386719-61.304688.234375-.015625.464844-.042969.699219-.066406 2.703125-.222656 5.460938-.722656 8.066406-1.488282.039063.042969.078125.085938.117188.128907 3.574218 4.03125 7.402344 7.847656 11.464844 11.382812 13.792968 12.003907 31.144531 21.617188 49.75 22.496094 5.980468.28125 12.054687-.425781 17.75-2.289063.019531.046876.039062.09375.058593.144532 3.917969 9.769531 7.636719 19.621094 11.046875 29.578125.007813.019531.015625.039062.019532.058593 8.910156 25.886719 16.882812 52.089844 23.824218 78.578126zm8.613281-101.675781c-.175781-.464844-4.675781-11.875-5.476562-14.011719.769531-.601563 1.515625-1.226563 2.25-1.878907 6.394531-5.683593 11.15625-13.140624 14.375-21.101562h25.117187c-10.449219 12.363281-22.585937 24.742188-36.265625 36.992188zm96.015625-51.992188h-80.460937c.761718-3.765625 1.34375-7.730469 1.742187-11.898438.910157-9.523437.789063-19.0625-.003906-28.589843-.398437-4.140625-.976563-8.082031-1.738281-11.847657h102.433594c-4.296876 17.207032-11.664063 34.757813-21.972657 52.335938zm0 0"></path></svg>