<!-- icon666.com - MILLIONS OF FREE VECTOR ICONS --><svg version="1.1" id="Capa_1" xmlns="http://www.w3.org/2000/svg" xmlns:xlink="http://www.w3.org/1999/xlink" x="0px" y="0px" viewBox="0 0 409.912 409.912" style="enable-background:new 0 0 409.912 409.912;" xml:space="preserve"><g><g><path d="M369.228,49.121c-6.231-11.412-17.94-17.608-29.773-15.79c-10.588,1.623-18.755,9.354-20.797,19.697 c-0.44,2.237-2.417,3.983-4.69,4.157c-10.511,0.773-19.174,7.936-22.072,18.248c-3.246,11.551,1.49,23.9,12.052,31.462 c9.206,6.595,20.301,8.653,30.561,8.653c5.581,0,10.911-0.609,15.56-1.428c9.861-1.741,17.802-8.771,20.726-18.345 C374.701,82.959,377.599,64.46,369.228,49.121z M361,92.784c-1.792,5.873-6.661,10.184-12.708,11.249 c-11.264,1.987-27.059,2.647-38.38-5.463c-8.52-6.093-9.8-14.52-8.156-20.367c1.367-4.864,5.489-10.26,12.964-10.808 c0,0,0,0,0.005,0c6.891-0.512,12.641-5.606,13.978-12.38c1.454-7.352,7.311-10.788,12.303-11.556 c0.799-0.123,1.638-0.189,2.504-0.189c5.632,0,12.375,2.785,16.727,10.762C366.904,66.242,364.328,81.848,361,92.784z"></path></g></g><g><g><path d="M81.602,170.419c-5.12-11.945-16.143-19.169-28.145-18.529c-10.696,0.614-19.553,7.537-22.569,17.633 c-0.64,2.156-2.714,3.697-4.951,3.692c-0.036,0-0.067-0.005-0.108,0c-10.501-0.184-19.84,6.093-23.695,16.087 c-4.321,11.197-0.778,23.941,9.027,32.466c10.798,9.4,25.288,11.863,37.519,11.863c2.698,0.005,5.289-0.118,7.706-0.307 c9.989-0.804,18.56-7.055,22.369-16.312C83.855,204.626,88.488,186.485,81.602,170.419z M69.288,213.115 c-2.335,5.678-7.593,9.508-13.716,9.999c-11.397,0.906-27.187,0.077-37.693-9.073c-7.905-6.876-8.381-15.38-6.19-21.048 c1.792-4.639,6.292-9.539,13.583-9.539c0.113,0,0.23,0,0.348,0.005c6.845-0.107,13.117-4.372,15.089-10.998 c2.145-7.183,8.299-10.051,13.343-10.342c6.098-0.44,14.019,2.703,18.145,12.334C77.68,187.253,73.64,202.542,69.288,213.115z"></path></g></g><g><g><path d="M240.102,30.551c-5.57-9.165-15.841-13.732-26.168-11.648c-2.253,0.451-4.608-0.701-5.637-2.739 C203.545,6.753,193.597,1.495,182.968,2.8c-11.909,1.439-21.494,10.552-24.422,23.209c-3.942,17.029,3.83,34.063,11.039,45.353 c4.91,7.695,13.271,12.227,22.262,12.227c0.876,0,1.756-0.046,2.642-0.128c13.327-1.316,31.514-5.74,42.47-19.364 C245.099,53.97,246.333,40.801,240.102,30.551z M228.976,57.676c-8.73,10.854-24.12,14.469-35.497,15.59 c-6.118,0.62-11.96-2.243-15.263-7.414c-6.154-9.641-12.831-23.977-9.697-37.535c2.36-10.209,9.646-14.623,15.677-15.355 c0.609-0.077,1.239-0.113,1.884-0.113c4.675,0,10.107,2.053,13.076,7.936c3.113,6.17,10.035,9.498,16.799,8.161 c7.352-1.475,12.774,2.606,15.396,6.927C234.506,41.057,235.54,49.515,228.976,57.676z"></path></g></g><g><g><path d="M408.289,344.335c-8.468-8.233-19.512-12.718-31.437-12.482c-6.323,0.097-12.406,1.557-17.966,4.163 c13.476-20.495,17.771-46.234,11.095-70.318c-4.961-17.905-16.748-34.232-33.178-45.972L74.849,32.476 c-2.063-1.469-4.895-1.213-6.661,0.609l-1.869,1.93L31.795,1.454c-0.978-0.952-2.284-1.398-3.651-1.449 c-1.362,0.021-2.657,0.584-3.604,1.567L1.438,25.487c-1.961,2.028-1.91,5.258,0.113,7.224l34.58,33.613 c-1.531,1.756-1.725,4.321-0.384,6.262l182.702,263.9c16.625,24.008,43.008,37.867,70.282,37.867 c5.499,0,11.034-0.563,16.532-1.72c11.515-2.422,22.257-7.214,31.744-13.972c-7.009,16.399-3.722,36.147,9.784,49.28 c0.978,0.957,2.268,1.449,3.574,1.449c0.794,0,1.597-0.184,2.34-0.563c1.72-0.886,42.358-22.093,56.781-58.957 C410.239,347.95,409.763,345.769,408.289,344.335z M12.349,28.928L28.344,12.38l30.863,30.003l-15.99,16.548L12.349,28.928z M46.561,70.215l25.923-26.839l217.738,155.638l-9.365,9.692c-1.961,2.028-1.91,5.263,0.113,7.229l7.69,7.475 c4.618,4.49,4.731,11.909,0.261,16.538c-2.161,2.243-5.064,3.502-8.166,3.543c-3.133,0.235-6.047-1.121-8.279-3.287l-7.69-7.475 c-0.973-0.952-2.463-1.48-3.645-1.449c-1.362,0.021-2.657,0.584-3.604,1.567l-18.181,18.821c-1.961,2.028-1.91,5.258,0.113,7.224 l33.28,32.353c5.903,5.74,6.057,15.227,0.333,21.151c-2.77,2.867-6.482,4.475-10.455,4.536c-4.024,0.164-7.731-1.428-10.583-4.203 l-33.285-32.353c-0.973-0.952-2.309-1.393-3.645-1.449c-1.362,0.02-2.657,0.584-3.604,1.562l-11.284,11.679L46.561,70.215z M303.16,362.613c-28.713,6.062-58.665-6.497-76.283-31.954l-20.7-29.901l9.134-9.457l29.604,28.774 c4.721,4.593,10.916,7.112,17.48,7.112c0.133,0,0.266-0.005,0.399-0.005c6.717-0.108,12.989-2.826,17.659-7.66 c9.631-9.969,9.385-25.938-0.558-35.604l-29.624-28.8l11.069-11.453l4.009,3.896c4.198,4.086,9.661,6.344,15.575,6.185 c5.847-0.092,11.305-2.458,15.37-6.671c8.381-8.684,8.161-22.589-0.492-30.997l-4.029-3.922l6.881-7.117l32.2,23.014 c14.536,10.383,24.929,24.724,29.266,40.381c7.142,25.754,0.072,53.668-18.453,72.847 C331.161,352.143,317.849,359.521,303.16,362.613z M351.38,397.829c-10.87-13.194-10.342-32.819,1.807-45.389 c6.308-6.528,14.771-10.204,23.828-10.348c0.184-0.005,0.364-0.005,0.548-0.005c7.706,0,15.043,2.57,21.012,7.327 C386.995,375.019,360.703,392.315,351.38,397.829z"></path></g></g><g><g><path d="M334.212,0.235c-41.743,0-75.704,33.961-75.704,75.699c0,41.738,33.961,75.699,75.704,75.699 c41.738,0,75.699-33.961,75.699-75.699C409.912,34.196,375.951,0.235,334.212,0.235z M334.212,141.394 c-36.096,0-65.464-29.363-65.464-65.459c0-36.096,29.368-65.459,65.464-65.459c36.096,0,65.459,29.363,65.459,65.459 C399.672,112.03,370.303,141.394,334.212,141.394z"></path></g></g><g><g><path d="M76.011,258.509c-41.738,0-75.699,33.961-75.699,75.699c0,41.738,33.956,75.699,75.699,75.699 c25.308,0,47.703-12.534,61.455-31.672c0.026-0.026,0.051-0.046,0.077-0.072c0.067-0.067,0.082-0.154,0.143-0.22 c8.796-12.365,14.024-27.438,14.024-43.735C151.71,292.469,117.749,258.509,76.011,258.509z M129.837,371.369 c-10.639,10.783-24.673,16.732-39.593,16.732c-15.083,0-29.271-6.062-39.951-17.065c-17.336-17.864-17.336-46.94,0-64.804 c6.487-6.687,15.099-10.363,24.248-10.363c9.149,0,17.761,3.681,24.248,10.363c10.409,10.726,10.409,28.18,0,38.912 c-3.799,3.917-8.842,6.072-14.193,6.072s-10.394-2.156-14.193-6.072c-5.975-6.159-5.975-16.179,0-22.339 c4.163-4.296,11.361-4.296,15.529,0c1.966,2.028,5.212,2.079,7.24,0.108c2.028-1.971,2.074-5.212,0.108-7.24 c-4.024-4.152-9.39-6.436-15.109-6.436s-11.085,2.284-15.114,6.436c-9.789,10.092-9.789,26.511,0,36.598 c5.745,5.919,13.394,9.18,21.545,9.18c8.146,0,15.795-3.261,21.545-9.18c14.223-14.659,14.223-38.513,0-53.171 c-8.433-8.689-19.651-13.476-31.596-13.476c-11.945,0-23.163,4.787-31.596,13.476c-21.151,21.801-21.151,57.267,0,79.063 c12.416,12.79,28.872,19.896,46.413,20.132c-4.311,0.896-8.771,1.372-13.343,1.372c-36.111,0-65.475-29.363-65.475-65.459 s29.363-65.459,65.459-65.459s65.459,29.363,65.459,65.459C141.47,348.006,137.154,360.801,129.837,371.369z"></path></g></g></svg>