<!-- icon666.com - MILLIONS OF FREE VECTOR ICONS --><svg id="Line" viewBox="0 0 64 64" xmlns="http://www.w3.org/2000/svg"><path d="m21 27.8232h5.293a1.001 1.001 0 0 0 .9531-.6962l1.707-5.3526a1 1 0 0 0 -1.9062-.6074l-1.4844 4.6562h-4.5625a1 1 0 0 0 0 2z"></path><circle cx="29" cy="18" r="1"></circle><path d="m3.2617 24.9106a4.5413 4.5413 0 0 0 1.4922 5.1133l12.1161 9.5679-4.997 15.377a4.5953 4.5953 0 0 0 7.0713 5.1376l13.0557-9.4858 13.0557 9.4858a4.5264 4.5264 0 0 0 5.4023 0 4.5262 4.5262 0 0 0 1.669-5.1372l-4.997-15.3774 12.1162-9.5679a4.5951 4.5951 0 0 0 -2.8477-8.2007h-15.0385l-4.9879-15.6432-.002-.0054a4.5953 4.5953 0 0 0 -8.7422.0054l-4.9879 15.6432h-15.0384a4.54 4.54 0 0 0 -4.3399 3.0874zm20.1083-1.0874a1.0009 1.0009 0 0 0 .9531-.6962l5.209-16.334a2.5948 2.5948 0 0 1 4.9346-.003l5.21 16.337a1.0009 1.0009 0 0 0 .9531.6962h15.7686a2.5946 2.5946 0 0 1 1.6075 4.6314l-12.6621 9.9995a1.0009 1.0009 0 0 0 -.3311 1.0938l5.2119 16.039a2.5949 2.5949 0 0 1 -3.9932 2.9014l-13.6435-9.9131a1.0007 1.0007 0 0 0 -1.1758 0l-13.6435 9.9131a2.5949 2.5949 0 0 1 -3.9932-2.9014l5.2119-16.039a1.0011 1.0011 0 0 0 -.331-1.0938l-12.6622-9.9995a2.5946 2.5946 0 0 1 1.6075-4.6314z"></path></svg>